<svg width="256" height="228" viewBox="0 0 256 228" fill="none" xmlns="http://www.w3.org/2000/svg">
<mask id="mask0_204_1094" style="mask-type:alpha" maskUnits="userSpaceOnUse" x="0" y="0" width="256" height="228">
<path d="M256 0H0V228H256V0Z" fill="#FFD1B4"/>
</mask>
<g mask="url(#mask0_204_1094)">
<path fill-rule="evenodd" clip-rule="evenodd" d="M192.319 31.7129H53.3555V205.595H192.319V31.7129Z" fill="#002664"/>
<path fill-rule="evenodd" clip-rule="evenodd" d="M185.078 39.5303H60.7812V198.624H185.078V39.5303Z" fill="white"/>
<path fill-rule="evenodd" clip-rule="evenodd" d="M176.297 47.1912H69.3652V64.4432H176.297V47.1912Z" fill="#CBEDFD"/>
<path d="M85.829 61.9784C85.4183 61.9784 85.0316 61.9304 84.669 61.8344C84.3116 61.7384 84.0743 61.6664 83.957 61.6184L84.061 60.2024C84.2263 60.261 84.4156 60.3357 84.629 60.4264C84.8423 60.5117 85.1116 60.5544 85.437 60.5544C85.9596 60.5544 86.317 60.4104 86.509 60.1224C86.7063 59.8344 86.805 59.349 86.805 58.6664V50.2504H88.285V59.0904C88.285 59.7037 88.2156 60.2264 88.077 60.6584C87.9383 61.0904 87.6903 61.4184 87.333 61.6424C86.981 61.8664 86.4796 61.9784 85.829 61.9784ZM95.3997 61.9784C94.3704 61.9784 93.4797 61.749 92.7277 61.2904C91.9757 60.8264 91.3944 60.1544 90.9837 59.2744C90.5784 58.389 90.3757 57.317 90.3757 56.0584C90.3757 54.7944 90.5811 53.7197 90.9917 52.8344C91.4024 51.9437 91.9837 51.2637 92.7357 50.7944C93.4877 50.325 94.3757 50.0904 95.3997 50.0904C96.4237 50.0904 97.3091 50.325 98.0557 50.7944C98.8024 51.2584 99.3784 51.9357 99.7837 52.8264C100.189 53.717 100.392 54.7944 100.392 56.0584C100.392 57.3117 100.189 58.381 99.7837 59.2664C99.3837 60.1464 98.8104 60.8184 98.0637 61.2824C97.3171 61.7464 96.4291 61.9784 95.3997 61.9784ZM95.3997 60.6904C96.4717 60.6904 97.3011 60.3197 97.8877 59.5784C98.4744 58.837 98.7677 57.669 98.7677 56.0744C98.7677 54.4584 98.4717 53.2717 97.8797 52.5144C97.2877 51.757 96.4611 51.3784 95.3997 51.3784C94.3437 51.3784 93.5144 51.7597 92.9117 52.5224C92.3091 53.285 92.0077 54.469 92.0077 56.0744C92.0077 57.669 92.3091 58.837 92.9117 59.5784C93.5144 60.3197 94.3437 60.6904 95.3997 60.6904ZM102.79 61.8184V50.2504H106.51C107.918 50.2504 108.982 50.509 109.702 51.0264C110.427 51.5437 110.79 52.2904 110.79 53.2664C110.79 53.8797 110.63 54.405 110.31 54.8424C109.99 55.2797 109.435 55.6397 108.646 55.9224C109.558 56.1197 110.19 56.4717 110.542 56.9784C110.899 57.4797 111.078 58.0557 111.078 58.7064C111.078 60.781 109.595 61.8184 106.63 61.8184H102.79ZM104.27 55.3384H106.79C107.19 55.3384 107.587 55.2824 107.982 55.1704C108.376 55.0584 108.704 54.8664 108.966 54.5944C109.227 54.3224 109.358 53.941 109.358 53.4504C109.358 52.7784 109.099 52.2824 108.582 51.9624C108.07 51.637 107.403 51.4744 106.582 51.4744H104.27V55.3384ZM104.27 60.5864H106.614C107.579 60.5864 108.312 60.429 108.814 60.1144C109.32 59.7944 109.574 59.3037 109.574 58.6424C109.574 58.157 109.448 57.765 109.198 57.4664C108.952 57.1624 108.619 56.941 108.198 56.8024C107.776 56.6637 107.307 56.5944 106.79 56.5944H104.27V60.5864ZM117.415 61.8184V50.2504H124.623L124.615 51.5464H118.935V55.3704H124.039V56.6504H118.935V61.8184H117.415ZM131.275 61.9784C130.245 61.9784 129.355 61.749 128.603 61.2904C127.851 60.8264 127.269 60.1544 126.859 59.2744C126.453 58.389 126.251 57.317 126.251 56.0584C126.251 54.7944 126.456 53.7197 126.867 52.8344C127.277 51.9437 127.859 51.2637 128.611 50.7944C129.363 50.325 130.251 50.0904 131.275 50.0904C132.299 50.0904 133.184 50.325 133.931 50.7944C134.677 51.2584 135.253 51.9357 135.659 52.8264C136.064 53.717 136.267 54.7944 136.267 56.0584C136.267 57.3117 136.064 58.381 135.659 59.2664C135.259 60.1464 134.685 60.8184 133.939 61.2824C133.192 61.7464 132.304 61.9784 131.275 61.9784ZM131.275 60.6904C132.347 60.6904 133.176 60.3197 133.763 59.5784C134.349 58.837 134.643 57.669 134.643 56.0744C134.643 54.4584 134.347 53.2717 133.755 52.5144C133.163 51.757 132.336 51.3784 131.275 51.3784C130.219 51.3784 129.389 51.7597 128.787 52.5224C128.184 53.285 127.883 54.469 127.883 56.0744C127.883 57.669 128.184 58.837 128.787 59.5784C129.389 60.3197 130.219 60.6904 131.275 60.6904ZM138.665 61.8184V50.2504H143.145C144.398 50.2504 145.337 50.5304 145.961 51.0904C146.59 51.6504 146.905 52.4237 146.905 53.4104C146.905 54.0397 146.793 54.5624 146.569 54.9784C146.35 55.3944 146.07 55.7304 145.729 55.9864C145.387 56.237 145.033 56.4317 144.665 56.5704L146.937 61.8184H145.369L143.257 56.8344H140.145V61.8184H138.665ZM140.145 55.6104H142.665C143.534 55.6104 144.206 55.4344 144.681 55.0824C145.155 54.725 145.393 54.197 145.393 53.4984C145.393 52.821 145.179 52.3117 144.753 51.9704C144.331 51.629 143.753 51.4584 143.017 51.4584H140.145V55.6104ZM149.493 61.8184V50.2504H151.541L155.029 59.8024L158.565 50.2504H160.605V61.8184H159.077V52.4664L155.725 61.8184H154.341L151.013 52.5544V61.8184H149.493Z" fill="#002664"/>
<path d="M90.863 157.901H78.448V169.384H90.863V157.901ZM90.863 175.123H78.448V186.606H90.863V175.123ZM90.9441 122.655H78.5292V134.138H90.9441V122.655ZM90.6337 105.034H78.2188V116.517H90.6337V105.034Z" stroke="#61B0D6" stroke-width="2" stroke-miterlimit="10" stroke-linecap="round" stroke-linejoin="round"/>
<path d="M90.9443 139.877H78.5293V151.36H90.9443V139.877Z" stroke="#61B0D6" stroke-width="2" stroke-miterlimit="10" stroke-linecap="round" stroke-linejoin="round"/>
<path d="M81.9882 127.83L86.5499 130.98L93.5173 119.937M81.3691 110.453L85.9308 113.603L92.8982 102.561M81.4482 145.836L86.0099 148.986L92.9773 137.944" stroke="#3D894D" stroke-width="2" stroke-miterlimit="10" stroke-linecap="round" stroke-linejoin="round"/>
<path fill-rule="evenodd" clip-rule="evenodd" d="M167.274 106.317H103.301V109.224H167.274V106.317Z" fill="#B6B6B6"/>
<path fill-rule="evenodd" clip-rule="evenodd" d="M146.928 86.3662H69.9375V87.6448H146.928V86.3662Z" fill="#B6B6B6"/>
<path fill-rule="evenodd" clip-rule="evenodd" d="M146.928 91.7969H69.9375V93.0754H146.928V91.7969Z" fill="#B6B6B6"/>
<path fill-rule="evenodd" clip-rule="evenodd" d="M146.928 97.2266H69.9375V98.5052H146.928V97.2266Z" fill="#B6B6B6"/>
<path fill-rule="evenodd" clip-rule="evenodd" d="M167.274 123.829H103.301V126.736H167.274V123.829Z" fill="#B6B6B6"/>
<path fill-rule="evenodd" clip-rule="evenodd" d="M167.274 141.343H103.301V144.249H167.274V141.343Z" fill="#B6B6B6"/>
<path fill-rule="evenodd" clip-rule="evenodd" d="M167.274 158.854H103.301V161.761H167.274V158.854Z" fill="#B6B6B6"/>
<path fill-rule="evenodd" clip-rule="evenodd" d="M167.274 176.369H103.301V179.276H167.274V176.369Z" fill="#B6B6B6"/>
<path fill-rule="evenodd" clip-rule="evenodd" d="M155.054 112.327H103.301V115.234H155.054V112.327Z" fill="#B6B6B6"/>
<path fill-rule="evenodd" clip-rule="evenodd" d="M163.066 129.84H103.301V132.746H163.066V129.84Z" fill="#B6B6B6"/>
<path fill-rule="evenodd" clip-rule="evenodd" d="M124.175 147.353H103.301V150.259H124.175V147.353Z" fill="#B6B6B6"/>
<path fill-rule="evenodd" clip-rule="evenodd" d="M145.049 164.865H103.301V167.772H145.049V164.865Z" fill="#B6B6B6"/>
<path fill-rule="evenodd" clip-rule="evenodd" d="M138.937 182.378H103.301V185.285H138.937V182.378Z" fill="#B6B6B6"/>
<path fill-rule="evenodd" clip-rule="evenodd" d="M176.461 72.8828H152.398V102.374H176.461V72.8828Z" fill="#CBEDFD"/>
<path fill-rule="evenodd" clip-rule="evenodd" d="M102.978 74.6699H69.9375V80.267H102.978V74.6699Z" fill="#909090"/>
<path fill-rule="evenodd" clip-rule="evenodd" d="M153.927 32.7152C153.927 26.4921 148.882 21.4473 142.659 21.4473C132.017 21.4473 116.143 21.4473 105.5 21.4473C99.2773 21.4473 94.2324 26.4921 94.2324 32.7152C94.2324 33.5177 94.2324 34.0192 94.2324 34.0192H153.927C153.927 34.0192 153.927 33.5177 153.927 32.7152Z" fill="#FFC635"/>
<path d="M150.447 150.107L148.954 150.669C148.954 150.669 147.484 149.647 147.754 148.916C148.024 148.186 148.921 147.41 149.359 147.466C149.797 147.521 151.064 148.748 151.064 148.748L150.447 150.107Z" fill="#868281"/>
<path d="M181.879 134.68C182.742 134.618 183.686 134.842 185.242 135.483L185.948 135.784C189.47 137.329 191.737 137.896 193.106 138.122L193.64 138.2C193.861 138.228 194.335 138.397 195.017 138.7C195.674 138.993 196.464 139.384 197.284 139.809C198.513 140.445 199.797 141.151 200.78 141.704L201.65 142.197C202.636 142.762 204.7 144.061 206.803 145.354C208.624 146.475 210.486 147.598 211.648 148.199L212.102 148.424C214.054 149.333 218.146 151.702 219.159 158.195L219.248 158.836C219.684 162.479 220.988 168.404 222.25 173.617C223.354 178.178 224.434 182.232 224.885 183.779L225.037 184.283C225.333 185.185 226.729 188.8 228.35 192.671C229.866 196.293 231.603 200.197 232.836 202.331L233.076 202.733C233.715 203.772 235.421 205.737 237.617 208.124C239.829 210.528 242.581 213.404 245.351 216.283C248.122 219.164 250.912 222.047 253.206 224.473C255.508 226.907 257.286 228.853 258.05 229.869C258.214 230.088 258.251 230.225 258.255 230.292C258.257 230.336 258.248 230.38 258.183 230.446C258.104 230.526 257.953 230.622 257.698 230.715C257.448 230.806 257.127 230.885 256.74 230.947C255.177 231.199 252.766 231.161 250.208 230.988C247.663 230.816 245.017 230.515 243.005 230.256C241.999 230.126 241.153 230.007 240.559 229.921C240.261 229.878 240.027 229.843 239.867 229.818C239.788 229.806 239.727 229.796 239.686 229.79C239.665 229.787 239.649 229.785 239.639 229.783C239.633 229.782 239.63 229.782 239.627 229.781C239.626 229.781 239.625 229.78 239.624 229.78L239.546 230.274L239.623 229.78L239.585 229.774H207.035C206.956 229.641 206.843 229.459 206.694 229.23C206.357 228.714 205.833 227.962 205.075 227.007C203.655 225.215 201.416 222.707 198.06 219.689L197.373 219.08C190.115 212.697 182.142 207.062 175.093 199.363L174.414 198.612C168.065 191.495 167.444 191.056 165.273 188.127L164.228 186.693C162.65 184.507 160.942 181.774 159.377 179.334C158.597 178.118 157.853 176.975 157.184 176.02C156.602 175.19 156.062 174.479 155.593 173.982L155.396 173.783C155.011 173.41 154.631 172.673 154.264 171.645C153.904 170.636 153.582 169.424 153.274 168.171C152.97 166.93 152.677 165.633 152.386 164.507C152.132 163.525 151.867 162.623 151.573 161.949L151.445 161.675V161.674C151.114 161.009 150.604 160.176 150.062 159.293C149.515 158.401 148.928 157.446 148.423 156.512C147.915 155.574 147.505 154.684 147.299 153.925C147.113 153.241 147.119 152.762 147.26 152.449L147.327 152.325C147.941 151.407 148.547 150.949 148.973 150.719C149.187 150.603 149.36 150.543 149.473 150.513C149.529 150.497 149.57 150.489 149.594 150.485C149.6 150.484 149.605 150.483 149.608 150.482L149.609 150.483H149.61V150.482L149.707 150.476L149.796 150.432L150.365 150.148L150.983 149.84L150.497 149.349L150.496 149.348C150.494 149.346 150.49 149.341 150.485 149.336C150.475 149.325 150.459 149.308 150.438 149.285C150.397 149.239 150.338 149.171 150.27 149.084C150.131 148.909 149.963 148.667 149.828 148.395C149.551 147.831 149.48 147.281 149.862 146.828L149.957 146.716L149.976 146.568C149.997 146.399 150.013 146.253 150.026 146.127C150.04 145.998 150.05 145.898 150.061 145.812C150.083 145.631 150.103 145.577 150.115 145.555C150.119 145.547 150.133 145.518 150.238 145.45C150.297 145.412 150.369 145.371 150.464 145.321L150.821 145.14C151.354 144.874 152.553 144.442 153.654 144.065C154.197 143.88 154.706 143.712 155.078 143.59C155.264 143.529 155.416 143.48 155.521 143.446C155.574 143.429 155.616 143.416 155.644 143.407C155.657 143.403 155.668 143.399 155.675 143.396C155.678 143.395 155.681 143.395 155.683 143.395L155.685 143.394H155.686L155.76 143.37L155.823 143.324H155.824C155.825 143.324 155.825 143.323 155.826 143.322C155.828 143.321 155.831 143.32 155.834 143.317C155.841 143.312 155.852 143.305 155.865 143.295C155.892 143.276 155.932 143.247 155.983 143.211C156.087 143.138 156.236 143.033 156.419 142.905C156.785 142.65 157.285 142.304 157.822 141.941C158.779 141.296 159.814 140.625 160.438 140.295L160.678 140.176C161.225 139.928 162.178 139.685 163.367 139.529C164.546 139.375 165.923 139.311 167.299 139.398C168.715 139.488 169.781 139.535 170.494 139.558C170.851 139.569 171.119 139.575 171.299 139.578C171.389 139.58 171.457 139.58 171.503 139.58C171.526 139.58 171.543 139.581 171.555 139.581H171.696L171.805 139.524C172.432 139.198 173.196 138.748 174.198 138.185C174.957 137.758 175.867 137.259 176.991 136.679L178.189 136.071C179.925 135.207 180.878 134.752 181.879 134.68ZM178.497 166.267C177.775 165.805 176.696 166.345 176.715 167.293L176.722 167.401C176.755 167.72 176.604 167.982 176.238 168.265C176.056 168.405 175.84 168.535 175.607 168.663L174.919 169.039C174.588 169.232 174.195 169.497 173.846 169.822C173.577 170.072 173.316 170.376 173.137 170.728C172.895 170.785 172.671 170.912 172.504 171.095C172.263 171.358 172.147 171.731 172.255 172.128L172.315 172.299C172.729 173.254 173.415 174.433 174.653 174.824L174.908 174.892C175.657 175.053 176.315 174.671 176.793 174.294C177.042 174.098 177.273 173.878 177.475 173.679C177.58 173.575 177.674 173.48 177.762 173.395L178.005 173.163C178.373 172.835 178.824 172.624 179.339 172.465C179.603 172.383 179.869 172.318 180.144 172.258L180.992 172.075C182.054 171.838 183.234 171.513 184.176 170.721L184.36 170.556C184.65 170.282 184.799 169.904 184.755 169.523C184.715 169.184 184.525 168.882 184.223 168.687L184.086 168.609C183.56 168.352 183 168.208 182.461 168.104C182.441 168.043 182.416 167.982 182.383 167.923C182.291 167.758 182.157 167.622 181.991 167.519L181.814 167.427C181.413 167.252 180.981 167.092 180.598 166.938C180.301 166.819 180.018 166.698 179.751 166.562L179.49 166.42C179.218 166.261 178.851 166.166 178.497 166.267ZM165.786 160.064C165.385 159.744 164.853 159.821 164.512 160.026C164.125 160.259 163.816 160.737 163.949 161.312L163.981 161.427C164.322 162.461 164.926 163.304 165.538 164.072C166.087 164.761 166.625 165.371 167.071 166.045L167.257 166.338C167.563 166.848 168.115 166.916 168.52 166.786C168.88 166.67 169.248 166.363 169.345 165.913L169.36 165.821C169.418 165.364 169.513 164.783 169.548 164.223C169.579 163.727 169.569 163.195 169.435 162.691L169.369 162.478C169.061 161.586 168.351 161.261 167.761 161.051C167.441 160.937 167.202 160.87 166.942 160.762C166.762 160.686 166.612 160.605 166.489 160.507L166.375 160.403L166.373 160.4L166.285 160.318C166.133 160.189 165.962 160.105 165.786 160.064Z" fill="#FFC697" stroke="#E8926B"/>
<path d="M169.876 160.591C170.121 160.692 170.439 160.827 170.807 160.99C171.689 161.381 172.857 161.933 174.005 162.581C175.158 163.233 176.265 163.968 177.045 164.717C177.801 165.444 178.135 166.073 178.101 166.587L178.089 166.689C177.857 168.064 176.622 169.275 175.312 170.181C174.672 170.623 174.047 170.97 173.58 171.207C173.391 171.304 173.227 171.379 173.102 171.437L168.919 167.732L168.518 166.615L169.876 160.591Z" fill="#FFC697" stroke="#EAA16C"/>
<path d="M151.581 151.529C151.823 151.542 152.029 151.564 152.187 151.588C152.263 151.599 152.326 151.61 152.373 151.62C152.394 151.647 152.422 151.685 152.455 151.739C152.548 151.89 152.663 152.108 152.794 152.379C153.055 152.917 153.359 153.624 153.651 154.334C153.943 155.041 154.219 155.743 154.422 156.269C154.515 156.51 154.593 156.713 154.649 156.863C154.208 157.373 153.329 158.386 152.473 159.271C151.964 159.797 151.48 160.262 151.11 160.55C151.035 160.61 150.967 160.654 150.912 160.691C150.586 160.105 149.921 158.922 149.203 157.562C148.374 155.991 147.53 154.277 147.155 153.164C147.592 152.236 148.661 151.777 149.87 151.6C150.488 151.51 151.097 151.502 151.581 151.529Z" fill="#FFF6E0" stroke="#EAA16C"/>
<path d="M169.269 163.219C169.345 163.28 169.431 163.393 169.508 163.588C169.669 163.999 169.731 164.62 169.711 165.324C169.692 166.015 169.596 166.731 169.482 167.297C169.461 167.403 169.438 167.502 169.416 167.594C169.34 167.446 169.26 167.28 169.181 167.104C169.019 166.747 168.867 166.375 168.756 166.091C168.703 165.955 168.658 165.841 168.627 165.758L169.269 163.219Z" fill="#FFF6E0" stroke="#EAA16C"/>
<path d="M166.274 160.968C166.974 161.294 167.672 161.618 168.194 161.86C168.204 161.865 168.214 161.868 168.224 161.873L165.783 163.39C165.757 163.322 165.73 163.248 165.7 163.171C165.521 162.699 165.282 162.072 165.045 161.447C164.875 160.998 164.706 160.55 164.56 160.162C165.057 160.397 165.667 160.684 166.274 160.968Z" fill="#FFC697" stroke="#EAA16C"/>
<path d="M150.23 145.885L150.088 145.907C150.122 145.746 150.16 145.584 150.207 145.443C150.225 145.43 150.251 145.411 150.286 145.389C150.402 145.317 150.572 145.228 150.79 145.129C151.058 145.007 151.379 144.877 151.72 144.746L150.23 145.885Z" fill="#FFF6E0" stroke="#EAA16C"/>
<path d="M150.143 149.702C150.143 149.702 155.875 148.65 159.053 152.34C162.23 156.031 163.231 159.358 164.432 160.399C165.634 161.439 165.816 163.507 166.526 164.219C167.236 164.931 168.918 166.388 170.402 168.709C171.886 171.03 173.153 172.257 174.125 173.002C175.097 173.748 174.802 173.977 175.184 174.47C175.566 174.962 179.53 178.753 180.403 180.286C181.275 181.818 179.648 179.924 177.136 178.006C174.623 176.088 169.098 170.588 167.373 168.059C165.649 165.53 161.865 158.207 159.78 155.721C157.695 153.235 157.503 149.833 150.143 149.702Z" fill="#EAA16C"/>
<path d="M160.115 145.363C160.115 145.363 162.478 151.973 167.597 152.265C172.715 152.557 173.019 152.966 173.019 152.966C173.019 152.966 169.087 152.028 167.151 151.373C165.215 150.719 161.27 148.176 160.553 145.418" fill="#EAA16C"/>
<path d="M172.205 148.139C172.205 148.139 173.255 155.294 176.184 156.732C179.113 158.169 194.83 165.313 194.83 165.313C194.83 165.313 195.04 163.651 191.422 162.038C187.805 160.424 177.702 158.079 175.957 155.014C174.212 151.949 172.965 151.969 172.205 148.139Z" fill="#EAA16C"/>
<path d="M157.885 151.052C157.885 151.052 163.968 159.536 164.666 160.626C165.932 161.211 233.113 193.624 233.113 193.624C233.113 193.624 239.794 186.489 216.255 175.135C210.5 172.36 162.7 150.225 162.7 150.225C162.7 150.225 160.683 151.51 157.885 151.052Z" fill="#D7153A"/>
<path d="M171.43 139.507C171.43 139.507 175.301 139.819 176.658 139.636C178.014 139.452 181.622 140.442 183.785 142.315C185.947 144.189 202.348 155.242 202.348 155.242C202.348 155.242 204.136 156.029 199.235 152.27C194.474 148.62 186.157 143.238 183.404 141.112C180.651 138.986 176.341 139.329 171.43 139.507Z" fill="#EAA16C"/>
<path d="M188.838 136.822C188.838 136.822 206.431 147.404 207.447 147.799C208.464 148.195 206.499 146.524 203.657 144.92C200.815 143.316 190.543 137.394 188.838 136.822Z" fill="#EAA16C"/>
<path d="M175.454 174.767C175.454 174.767 177.763 175.861 180.048 176.772C182.332 177.684 184.627 179.218 184.856 179.514C185.085 179.81 183.206 176.994 181.212 176.297C179.218 175.601 182.368 175.996 182.5 175.659C182.631 175.322 180.662 176.136 178.825 175.194C176.989 174.252 178.348 172.646 180.252 172.354C182.155 172.062 185.275 170.59 185.275 170.59L183.668 169.942C183.668 169.942 183.546 170.904 181.664 171.377C179.782 171.85 178.197 171.028 175.184 174.468C175.074 175.343 175.454 174.767 175.454 174.767Z" fill="#EAA16C"/>
<path d="M146.865 148.22L147.839 149.523L149.359 147.469L147.316 147.655C147.316 147.655 146.486 147.714 146.865 148.22Z" fill="#868281"/>
</g>
</svg>
