<svg width="165" height="165" viewBox="0 0 165 165" fill="none" xmlns="http://www.w3.org/2000/svg">
<g filter="url(#filter0_d_131077_4754)">
<path d="M63.5314 115.764L115.764 82.5518L63.5314 49.2355V115.764ZM82.378 160C71.7971 160 61.7802 157.979 52.3273 153.937C42.8744 149.896 34.6444 144.371 27.6374 137.363C20.6291 130.356 15.1044 122.122 11.0634 112.662C7.02113 103.203 5 93.1709 5 82.5666C5 71.8513 7.02483 61.7827 11.0745 52.3606C15.1229 42.9373 20.6691 34.7042 27.7132 27.6614C34.756 20.6186 42.9817 15.081 52.3902 11.0486C61.7987 7.0162 71.7829 5 82.3428 5C93.0704 5 103.17 7.01312 112.643 11.0394C122.114 15.0643 130.354 20.5939 137.363 27.6281C144.372 34.6611 149.897 42.9022 153.938 52.3513C157.979 61.8005 160 71.9006 160 82.6516C160 93.2757 157.984 103.277 153.951 112.656C149.919 122.035 144.381 130.246 137.339 137.289C130.296 144.331 122.058 149.877 112.626 153.926C103.196 157.975 93.1129 160 82.378 160ZM82.4242 144.619C99.5905 144.619 114.231 138.561 126.345 126.445C138.459 114.33 144.515 99.7064 144.515 82.5758C144.515 65.4095 138.467 50.7691 126.369 38.6546C114.271 26.5414 99.6213 20.4848 82.4205 20.4848C65.3417 20.4848 50.7321 26.5334 38.5918 38.6306C26.4514 50.729 20.3813 65.3787 20.3813 82.5795C20.3813 99.6583 26.4391 114.268 38.5548 126.408C50.6705 138.549 65.2936 144.619 82.4242 144.619Z" fill="white" fill-opacity="0.8" shape-rendering="crispEdges"/>
</g>
<defs>
<filter id="filter0_d_131077_4754" x="0" y="0" width="165" height="165" filterUnits="userSpaceOnUse" color-interpolation-filters="sRGB">
<feFlood flood-opacity="0" result="BackgroundImageFix"/>
<feColorMatrix in="SourceAlpha" type="matrix" values="0 0 0 0 0 0 0 0 0 0 0 0 0 0 0 0 0 0 127 0" result="hardAlpha"/>
<feOffset/>
<feGaussianBlur stdDeviation="2.5"/>
<feComposite in2="hardAlpha" operator="out"/>
<feColorMatrix type="matrix" values="0 0 0 0 0 0 0 0 0 0 0 0 0 0 0 0 0 0 0.25 0"/>
<feBlend mode="normal" in2="BackgroundImageFix" result="effect1_dropShadow_131077_4754"/>
<feBlend mode="normal" in="SourceGraphic" in2="effect1_dropShadow_131077_4754" result="shape"/>
</filter>
</defs>
</svg>
