<?xml version="1.0" encoding="utf-8"?><svg xmlns="http://www.w3.org/2000/svg" xmlns:xlink="http://www.w3.org/1999/xlink"><defs><svg viewBox="0 0 32 32" id="arrow" xmlns="http://www.w3.org/2000/svg"><path d="M20.023 4.022L32 16 20.023 27.978l-2.504-2.504 7.689-7.689-25.209.001v-3.575h25.207l-7.688-7.686 2.504-2.504z"/></svg><svg viewBox="0 0 20 32" id="chevron" xmlns="http://www.w3.org/2000/svg"><path d="M20 16L4 0 0 4l12 12L0 28l4 4 16-16z"/></svg><svg viewBox="0 0 32 32" id="close" xmlns="http://www.w3.org/2000/svg"><path d="M28.235 0L32 3.765 19.764 16 32 28.235 28.235 32 16 19.764 3.765 32 0 28.235 12.235 16 0 3.765 3.765 0 16 12.236 28.235 0z"/></svg><svg viewBox="0 0 32 32" id="menu" xmlns="http://www.w3.org/2000/svg"><path d="M0 26.667h32v-3.556H0v3.556zm0-8.889h32v-3.556H0v3.556zM0 5.333v3.556h32V5.333H0z"/></svg><svg viewBox="0 0 32 32" id="search" xmlns="http://www.w3.org/2000/svg"><path d="M21.001 23.304a12.927 12.927 0 01-7.985 2.737C5.828 26.041 0 20.213 0 13.025S5.828.009 13.016.009s13.016 5.828 13.016 13.016c0 3.023-1.03 5.804-2.758 8.013l.022-.029L32 29.68l-2.311 2.311-8.671-8.688-.017.001zm-7.972-.521c5.392 0 9.762-4.37 9.762-9.762s-4.37-9.762-9.762-9.762-9.762 4.37-9.762 9.762 4.37 9.762 9.762 9.762z"/></svg><svg viewBox="0 0 32 32" id="status-error" xmlns="http://www.w3.org/2000/svg"><path d="M16 0C7.2 0 0 7.2 0 16s7.2 16 16 16 16-7.2 16-16S24.8 0 16 0zm7.837 21.6l-2.238 2.238-5.6-5.6-5.6 5.6L8.161 21.6l5.6-5.6-5.6-5.6 2.238-2.237 5.6 5.6 5.6-5.6 2.238 2.238-5.6 5.6 5.6 5.6z"/></svg><svg viewBox="0 0 32 32" id="status-info" xmlns="http://www.w3.org/2000/svg"><path d="M16 32A16.003 16.003 0 0027.314 4.686a16.003 16.003 0 00-22.628 0 16.003 16.003 0 000 22.628C7.687 30.314 11.756 32 16 32zm0-25a2 2 0 110 4.001A2 2 0 0116 7zm-2 7h4v11h-4V14z"/></svg><svg viewBox="0 0 32 32" id="status-success" xmlns="http://www.w3.org/2000/svg"><path d="M16 0c8.837 0 16 7.163 16 16s-7.163 16-16 16S0 24.837 0 16 7.163 0 16 0zm6.184 9.6l-8.53 8.528-3.942-3.607-2.245 2.452 6.289 5.754 10.778-10.778-2.35-2.35z"/></svg><svg viewBox="0 0 32 32" id="status-warning" xmlns="http://www.w3.org/2000/svg"><path d="M16 0A16.003 16.003 0 004.686 27.314a16.003 16.003 0 0022.628 0 16.003 16.003 0 000-22.628C24.313 1.686 20.244 0 16 0zm0 25a2 2 0 110-4.001A2 2 0 0116 25zm2-7h-4V7h4v11z"/></svg><svg viewBox="0 0 32 32" id="tick" xmlns="http://www.w3.org/2000/svg"><path d="M29.362 3.742L10.495 22.946l-7.857-7.997L0 17.634l9.175 9.34 1.319 1.284 1.318-1.284L31.999 6.427z"/></svg></defs></svg>