<svg id="Layer_1" data-name="Layer 1" xmlns="http://www.w3.org/2000/svg" viewBox="0 0 180 59.13"><defs><style>.cls-1{fill:#002664;}.cls-2{fill:#fff;}.cls-3{fill:#d7153a;}</style></defs><title>NSW Department of Premier and Cabinet logo</title><path class="cls-1" d="M71.22,59.07a.51.51,0,0,1-.51-.52V5.94a.52.52,0,1,1,1,0V58.55a.52.52,0,0,1-.52.52Z"/><path class="cls-1" d="M87.81,24.65h5.68c3.37,0,5.47,1.91,5.47,4.81v.05c0,3.23-2.59,4.91-5.76,4.91H90.34v4.63H87.81Zm5.47,7.49c1.92,0,3.11-1.07,3.11-2.57v0c0-1.69-1.22-2.58-3.11-2.58H90.34v5.19Z"/><path class="cls-1" d="M100.51,28.19H103v2.45A3.86,3.86,0,0,1,106.84,28v2.64h-.14c-2.18,0-3.71,1.42-3.71,4.3v4.13h-2.48Z"/><path class="cls-1" d="M107.27,33.66v0A5.4,5.4,0,0,1,112.58,28c3.46,0,5.21,2.72,5.21,5.85,0,.22,0,.45,0,.7h-8a3,3,0,0,0,3.12,2.75,4,4,0,0,0,3-1.29l1.46,1.29a5.49,5.49,0,0,1-4.45,2A5.42,5.42,0,0,1,107.27,33.66Zm8-.8A2.82,2.82,0,0,0,112.56,30a2.94,2.94,0,0,0-2.82,2.86Z"/><path class="cls-1" d="M119.54,28.19H122v1.65A3.9,3.9,0,0,1,125.34,28a3.45,3.45,0,0,1,3.26,1.92A4.34,4.34,0,0,1,132.26,28c2.37,0,3.81,1.5,3.81,4.16v6.93h-2.49V32.88c0-1.73-.81-2.65-2.21-2.65s-2.32.94-2.32,2.69v6.13h-2.49V32.86c0-1.69-.83-2.63-2.2-2.63s-2.33,1-2.33,2.69v6.13h-2.49Z"/><path class="cls-1" d="M138.37,24.16H141v2.36h-2.67Zm.1,4H141V39.05h-2.49Z"/><path class="cls-1" d="M142.86,33.66v0A5.39,5.39,0,0,1,148.17,28c3.45,0,5.2,2.72,5.2,5.85,0,.22,0,.45,0,.7h-8a3,3,0,0,0,3.12,2.75A4,4,0,0,0,151.42,36l1.46,1.29a5.49,5.49,0,0,1-4.45,2A5.41,5.41,0,0,1,142.86,33.66Zm8-.8c-.16-1.6-1.11-2.86-2.75-2.86a2.93,2.93,0,0,0-2.82,2.86Z"/><path class="cls-1" d="M155.12,28.19h2.49v2.45A3.86,3.86,0,0,1,161.46,28v2.64h-.14c-2.19,0-3.71,1.42-3.71,4.3v4.13h-2.49Z"/><path class="cls-1" d="M96.27,56.56a6.31,6.31,0,0,1-4.88,2.49c-2.53,0-4.43-1.65-4.43-4V55c0-1.93,1.38-3.35,3.73-4.21a4.77,4.77,0,0,1-1.61-3.3v0a3.36,3.36,0,0,1,3.6-3.27A3.2,3.2,0,0,1,96,47.32v0c0,1.79-1.34,3-3.54,3.72L96.24,55a18.53,18.53,0,0,0,1.88-3.5l1,.4a19.76,19.76,0,0,1-2.15,3.82l2.66,2.74-.84.7Zm-.68-.7-4.26-4.41C89,52.24,88,53.57,88,55v0a3.16,3.16,0,0,0,3.38,3.11A5.55,5.55,0,0,0,95.59,55.86Zm-.66-8.46v0a2.24,2.24,0,0,0-2.29-2.27,2.35,2.35,0,0,0-2.49,2.33v0c0,.91.39,1.61,1.67,3C93.88,49.77,94.93,48.76,94.93,47.4Z"/><path class="cls-1" d="M106.14,51.68v0a7.29,7.29,0,0,1,7.43-7.45,7.53,7.53,0,0,1,5.64,2.24l-1.63,1.88a5.71,5.71,0,0,0-4-1.79,4.84,4.84,0,0,0-4.75,5.08v0a4.85,4.85,0,0,0,4.75,5.1,5.65,5.65,0,0,0,4.14-1.85l1.62,1.65a7.43,7.43,0,0,1-5.84,2.55A7.25,7.25,0,0,1,106.14,51.68Z"/><path class="cls-1" d="M120.2,55.71v0c0-2.34,1.83-3.5,4.48-3.5a9,9,0,0,1,2.93.46v-.27c0-1.54-1-2.37-2.7-2.37a7.63,7.63,0,0,0-3.11.68l-.66-2a9.24,9.24,0,0,1,4.1-.89,4.83,4.83,0,0,1,3.6,1.22A4.5,4.5,0,0,1,130,52.4v6.44h-2.42V57.48a4.41,4.41,0,0,1-3.54,1.59C122,59.07,120.2,57.9,120.2,55.71Zm7.45-.78v-.74a6.84,6.84,0,0,0-2.47-.43c-1.61,0-2.55.68-2.55,1.81v0c0,1,.92,1.65,2.12,1.65C126.39,57.26,127.65,56.31,127.65,54.93Z"/><path class="cls-1" d="M134.73,57.16v1.68h-2.49v-15h2.49v6a4.32,4.32,0,0,1,3.7-2c2.55,0,5,2,5,5.64v0c0,3.6-2.47,5.64-5,5.64A4.45,4.45,0,0,1,134.73,57.16Zm6.21-3.73v0a3.22,3.22,0,0,0-3.11-3.48,3.28,3.28,0,0,0-3.17,3.48v0a3.28,3.28,0,0,0,3.17,3.48A3.18,3.18,0,0,0,140.94,53.43Z"/><path class="cls-1" d="M145.32,43.94H148v2.37h-2.68Zm.11,4h2.49V58.84h-2.49Z"/><path class="cls-1" d="M150.41,48h2.49v1.66a3.93,3.93,0,0,1,3.39-1.89c2.45,0,3.87,1.65,3.87,4.16v6.93h-2.49V52.67c0-1.69-.84-2.66-2.32-2.66a2.42,2.42,0,0,0-2.45,2.7v6.13h-2.49Z"/><path class="cls-1" d="M161.81,53.45v0a5.39,5.39,0,0,1,5.31-5.66c3.46,0,5.2,2.72,5.2,5.84,0,.23,0,.46,0,.7h-8a3,3,0,0,0,3.13,2.76,4,4,0,0,0,2.94-1.29l1.46,1.29a5.48,5.48,0,0,1-4.44,2A5.43,5.43,0,0,1,161.81,53.45Zm8.05-.8c-.17-1.61-1.12-2.86-2.76-2.86a2.93,2.93,0,0,0-2.82,2.86Z"/><path class="cls-1" d="M174.59,55.84V50.12h-1.38V48h1.38V45h2.49v3H180v2.14h-2.92v5.33a1.18,1.18,0,0,0,1.34,1.35,3.3,3.3,0,0,0,1.54-.37v2a4.32,4.32,0,0,1-2.24.56C175.88,59,174.59,58.22,174.59,55.84Z"/><path class="cls-1" d="M15.05,45.65,6.4,35.49H2.73v15.9H6.31V41.25l8.62,10.14h3.69V35.49H15.05ZM49.34,35.49,47,45.67,44.48,35.49H41.06L38.53,45.55l-2.3-10.06H32.5l4.13,15.9h3.68l2.43-10.06,2.47,10.06h3.61l0-.14L53,35.49Z"/><path class="cls-1" d="M2.35,56.27h0a2.51,2.51,0,0,1,2.54-2.55,2.68,2.68,0,0,1,1.9.67L6.24,55a2,2,0,0,0-1.38-.53,1.67,1.67,0,0,0-1.6,1.74v0A1.64,1.64,0,0,0,4.94,58a2,2,0,0,0,1.18-.37v-.92H4.86V56H7V58a3.1,3.1,0,0,1-2,.77,2.45,2.45,0,0,1-2.56-2.53"/><path class="cls-1" d="M7.48,56.27h0a2.52,2.52,0,0,1,2.58-2.55,2.49,2.49,0,0,1,2.57,2.53v0a2.52,2.52,0,0,1-2.58,2.54,2.5,2.5,0,0,1-2.57-2.53m4.24,0h0a1.69,1.69,0,0,0-1.67-1.76,1.66,1.66,0,0,0-1.66,1.74v0A1.69,1.69,0,0,0,10.06,58a1.66,1.66,0,0,0,1.66-1.74"/><polygon class="cls-1" points="12.57 53.79 13.53 53.79 15.01 57.58 16.48 53.79 17.42 53.79 15.37 58.75 14.62 58.75 12.57 53.79"/><polygon class="cls-1" points="18 53.79 21.66 53.79 21.66 54.57 18.87 54.57 18.87 55.85 21.34 55.85 21.34 56.62 18.87 56.62 18.87 57.94 21.69 57.94 21.69 58.72 18 58.72 18 53.79"/><path class="cls-1" d="M22.53,53.79h2.19a2,2,0,0,1,1.42.5,1.47,1.47,0,0,1,.41,1.06h0a1.47,1.47,0,0,1-1.17,1.49l1.33,1.87h-1L24.48,57H23.39v1.72h-.86Zm2.13,2.44c.62,0,1-.32,1-.82h0c0-.53-.38-.82-1-.82H23.39v1.65Z"/><polygon class="cls-1" points="27.32 53.79 28.11 53.79 30.75 57.2 30.75 53.79 31.6 53.79 31.6 58.72 30.88 58.72 28.16 55.21 28.16 58.72 27.32 58.72 27.32 53.79"/><polygon class="cls-1" points="32.48 53.79 33.4 53.79 34.9 56.12 36.4 53.79 37.32 53.79 37.32 58.72 36.46 58.72 36.46 55.19 34.9 57.51 34.87 57.51 33.33 55.2 33.33 58.72 32.48 58.72 32.48 53.79"/><polygon class="cls-1" points="38.15 53.79 41.8 53.79 41.8 54.57 39.01 54.57 39.01 55.85 41.48 55.85 41.48 56.62 39.01 56.62 39.01 57.94 41.83 57.94 41.83 58.72 38.15 58.72 38.15 53.79"/><polygon class="cls-1" points="42.68 53.79 43.48 53.79 46.12 57.2 46.12 53.79 46.97 53.79 46.97 58.72 46.25 58.72 43.53 55.21 43.53 58.72 42.68 58.72 42.68 53.79"/><polygon class="cls-1" points="49.22 54.6 47.66 54.6 47.66 53.79 51.65 53.79 51.65 54.6 50.09 54.6 50.09 58.72 49.22 58.72 49.22 54.6"/><path class="cls-1" d="M19.61,49.18l2.1-2.52a7.41,7.41,0,0,0,4.82,2c1.46,0,2.33-.57,2.33-1.52v-.05c0-.9-.55-1.36-3.25-2-3.26-.83-5.36-1.73-5.36-4.94V40c0-2.93,2.36-4.87,5.66-4.87a9.34,9.34,0,0,1,6,2.06l-1.84,2.67a7.65,7.65,0,0,0-4.21-1.59c-1.36,0-2.07.62-2.07,1.41v.05c0,1.06.69,1.4,3.48,2.12,3.28.85,5.13,2,5.13,4.85v0c0,3.21-2.45,5-5.94,5A10.28,10.28,0,0,1,19.61,49.18Z"/><path class="cls-2" d="M55.77,24.37a2.05,2.05,0,0,0-.9-1.49,39.88,39.88,0,0,0-4.66-3c.22-.28.32-.44.52-.73a14.67,14.67,0,0,0,2.41-4.64,4.09,4.09,0,0,0,.14-1.84A1.81,1.81,0,0,0,52,11.57a32.31,32.31,0,0,0-5.9,0A26.51,26.51,0,0,0,45.63,6c-.12-.48-.33-1.23-.86-1.45A3.66,3.66,0,0,0,42,5c-1.12.52-2,.93-3.15,1.55-.55-1.95-1.13-3.78-1.34-4.25s-.36-.95-1-1.08a1.71,1.71,0,0,0-1.36.34c-.57.35-3.06,2.12-3.89,2.81C30.68,3.46,30.33,2.8,29.8,2A11.92,11.92,0,0,0,28.67.36a1,1,0,0,0-1.56,0A10.59,10.59,0,0,0,26,2c-.54.84-.88,1.5-1.44,2.43-.83-.69-3.32-2.45-3.9-2.8a1.63,1.63,0,0,0-1.35-.34c-.65.12-.87.74-1,1.08s-.78,2.29-1.33,4.24c-1.2-.62-2-1-3.16-1.55A3.68,3.68,0,0,0,11,4.5c-.53.22-.74,1-.86,1.46a25.23,25.23,0,0,0-.5,5.59,32.28,32.28,0,0,0-5.91,0A1.8,1.8,0,0,0,2.5,12.66a3.94,3.94,0,0,0,.14,1.84A14.34,14.34,0,0,0,5,19.14c.21.3.3.45.52.73a42.57,42.57,0,0,0-4.66,3A2.08,2.08,0,0,0,0,24.37a1.43,1.43,0,0,0,.33,1c.54.76,3.54,3.65,10.26,4.68a1.85,1.85,0,0,0-.75,2.3A2.32,2.32,0,0,0,11,33.43a7.62,7.62,0,0,0,3.47.74,23.15,23.15,0,0,0,4.83-.62,30.17,30.17,0,0,1,4.56-1,21.44,21.44,0,0,1,2.66,0c.32,0,.72.07,1.43.07s1.09,0,1.4-.07a21.63,21.63,0,0,1,2.67,0,31.7,31.7,0,0,1,4.56,1,22.41,22.41,0,0,0,4.82.62,7.58,7.58,0,0,0,3.47-.73,2.35,2.35,0,0,0,1.12-1.07,1.87,1.87,0,0,0-.75-2.31c6.72-1,9.72-3.91,10.26-4.67A1.42,1.42,0,0,0,55.77,24.37Z"/><path class="cls-3" d="M38.17,10A42.71,42.71,0,0,1,39,18.09a24.7,24.7,0,0,1-1,7.37A9.13,9.13,0,0,1,34.85,30c2.88-.09,5.45-1.88,7.28-5.05,2.37-4.16,2.88-9.38,3-13.2.08-4.35-.24-5.37-.37-5.79s-.3-.59-.68-.59c-.73,0-3.82,1.4-6.71,3.46A1.66,1.66,0,0,1,38.17,10Z"/><path class="cls-3" d="M30.31,30.54a7.7,7.7,0,0,0,6.62-5.43,24.33,24.33,0,0,0,1-7,34.49,34.49,0,0,0-.69-7.55c0-.27-.16-.7-.5-.77s-.64.29-.85.46-5.23,4.56-7.41,10A12.86,12.86,0,0,0,27.3,26,5.86,5.86,0,0,0,28,29.42,2.68,2.68,0,0,0,30.31,30.54Z"/><path class="cls-3" d="M37.89,7c-.56-2.59-1.1-4.36-1.11-4.37-.12-.32-.29-.56-.53-.6a.86.86,0,0,0-.73.23c-.35.26-2.85,2.23-3.67,2.91a37.15,37.15,0,0,1,2.06,5A48.2,48.2,0,0,1,37.89,7Z"/><path class="cls-3" d="M52.36,13.54a1.43,1.43,0,0,0-.12-.8c-.16-.23-.37-.34-.87-.4a49.32,49.32,0,0,0-5.24.27,37.39,37.39,0,0,1-.44,5.06,38.29,38.29,0,0,1,3.63,1.57C51.8,16.11,52.31,14.11,52.36,13.54Z"/><path class="cls-3" d="M54.66,24.39c0-.42-.21-.75-.89-1.2a41.29,41.29,0,0,0-8.29-4.37,22.14,22.14,0,0,1-2.36,6.65A12,12,0,0,1,39,29.86c4.85-.33,8.93-1.08,11.87-2.5C54.23,25.74,54.68,24.93,54.66,24.39Z"/><path class="cls-3" d="M43.94,30.64a22.31,22.31,0,0,0-2.78.38,13.91,13.91,0,0,1-2.91.21l-1.9,0c-.61,0-1.3,0-2,0h0a19,19,0,0,0-5,.52c-.09,0-.2,0-.18.15s.13.08.26.09,1.34-.09,1.93-.09a18.66,18.66,0,0,1,5,.73,16.12,16.12,0,0,0,4.35.66c1.84,0,3.44-.24,4-.9a1.17,1.17,0,0,0,.3-1C45,30.85,44.66,30.63,43.94,30.64Z"/><path class="cls-3" d="M13.65,24.9c1.82,3.17,4.4,5,7.27,5.05a9.12,9.12,0,0,1-3.16-4.49,24.36,24.36,0,0,1-1-7.37A42.71,42.71,0,0,1,17.6,10a1.68,1.68,0,0,1,.84-1.18c-2.92-2.17-6-3.44-6.71-3.46-.37,0-.55.16-.67.59s-.46,1.44-.37,5.79C10.76,15.52,11.27,20.74,13.65,24.9Z"/><path class="cls-3" d="M19.93,10.23c-.2-.17-.52-.53-.84-.46s-.45.5-.51.77a35.53,35.53,0,0,0-.68,7.55,24.73,24.73,0,0,0,.94,7,7.65,7.65,0,0,0,6.67,5.41,3.4,3.4,0,0,0,1.15-.21,2.89,2.89,0,0,0,.51-.28,4.49,4.49,0,0,1-.41-.69,7.22,7.22,0,0,1-.61-3.1,15.86,15.86,0,0,1,1.22-6.15C25.18,14.65,20.13,10.4,19.93,10.23Z"/><path class="cls-3" d="M27.89,18.46a27.16,27.16,0,0,1,5.18-7.09A44.29,44.29,0,0,0,28.3,1.18c-.13-.19-.23-.31-.42-.31s-.28.12-.41.31A44.71,44.71,0,0,0,22.7,11.37a27.17,27.17,0,0,1,5.19,7.09Z"/><path class="cls-3" d="M23.93,5.21c-.82-.68-3.32-2.65-3.68-2.91a.83.83,0,0,0-.72-.23c-.25,0-.42.28-.54.6,0,0-.54,1.78-1.1,4.37a47.78,47.78,0,0,1,4,3.19A38.57,38.57,0,0,1,23.93,5.21Z"/><path class="cls-3" d="M6.45,19.24a39.59,39.59,0,0,1,3.64-1.57,35.79,35.79,0,0,1-.45-5.06,49.26,49.26,0,0,0-5.23-.27c-.51.06-.71.17-.87.4a1.35,1.35,0,0,0-.12.8C3.47,14.11,4,16.11,6.45,19.24Z"/><path class="cls-3" d="M12.66,25.47a21.87,21.87,0,0,1-2.36-6.65A41.45,41.45,0,0,0,2,23.19c-.67.45-.86.78-.88,1.2s.42,1.35,3.78,3c2.93,1.42,7,2.17,11.87,2.5A11.89,11.89,0,0,1,12.66,25.47Z"/><path class="cls-3" d="M26.38,31.69a19,19,0,0,0-5-.52h0c-.69,0-1.39,0-2,0l-1.89,0A14.05,14.05,0,0,1,14.61,31a22.2,22.2,0,0,0-2.77-.38c-.73,0-1.07.21-1.2.68a1.14,1.14,0,0,0,.29,1c.6.66,2.2.9,4.05.9a16.24,16.24,0,0,0,4.35-.66,18.64,18.64,0,0,1,5-.73c.6,0,1.8.09,1.93.09s.26,0,.27-.09S26.47,31.72,26.38,31.69Z"/></svg>
