<svg version="1.1" xmlns="http://www.w3.org/2000/svg" width="32" height="32" viewBox="0 0 32 32">
<path d="M16 32c4.243 0 8.313-1.686 11.314-4.686 3-3.001 4.686-7.070 4.686-11.314s-1.686-8.313-4.686-11.314c-3.001-3-7.070-4.686-11.314-4.686s-8.313 1.686-11.314 4.686c-3 3.001-4.686 7.070-4.686 11.314s1.686 8.313 4.686 11.314c3.001 3 7.070 4.686 11.314 4.686zM16 7c0.809 0 1.538 0.487 1.848 1.234s0.138 1.608-0.434 2.18c-0.572 0.572-1.432 0.744-2.18 0.434s-1.234-1.039-1.234-1.848c0-1.104 0.896-2 2-2zM14 14h4v11h-4v-11z"></path>
</svg>
