<svg version="1.1" xmlns="http://www.w3.org/2000/svg" width="37" height="32" viewBox="0 0 37 32">
<path fill="#059ff5" d="M33.474 8c0.049 0.205 0.073 0.538 0.073 1 0 3.692-0.851 7.256-2.552 10.692-1.75 3.641-4.205 6.538-7.365 8.692-3.451 2.41-7.413 3.615-11.885 3.615-4.278 0-8.191-1.205-11.74-3.615 0.535 0.051 1.142 0.077 1.823 0.077 3.549 0 6.733-1.154 9.552-3.462-1.701 0-3.196-0.526-4.484-1.577s-2.175-2.372-2.661-3.962c0.486 0.051 0.948 0.077 1.385 0.077 0.681 0 1.361-0.077 2.042-0.231-1.75-0.41-3.208-1.359-4.375-2.846s-1.75-3.18-1.75-5.077v-0.154c1.069 0.667 2.212 1.026 3.427 1.077-1.021-0.769-1.847-1.744-2.479-2.923s-0.948-2.474-0.948-3.885c0-1.41 0.365-2.756 1.094-4.038 1.896 2.513 4.217 4.513 6.964 6s5.675 2.308 8.786 2.462c-0.097-0.615-0.146-1.231-0.146-1.846 0-1.436 0.34-2.782 1.021-4.038s1.604-2.244 2.771-2.962c1.167-0.718 2.431-1.077 3.792-1.077 1.118 0 2.151 0.231 3.099 0.692s1.786 1.077 2.516 1.846c1.75-0.359 3.378-1 4.885-1.923-0.583 1.897-1.701 3.385-3.354 4.462 1.458-0.205 2.917-0.641 4.375-1.308-1.069 1.641-2.358 3.051-3.865 4.231z"></path>
</svg>
