<svg xmlns="http://www.w3.org/2000/svg" viewBox="0 0 96 96" fill="none">
  <style>
    .favicon-bg { fill: #fff; }
    .favicon-waratah { fill: #D7153A; }

    @media (prefers-color-scheme: dark) {
      .favicon-bg { fill: #23272B; }
      .favicon-waratah { fill: #D7153A; }
    }
  </style>
  <rect width="96" height="96" class="favicon-bg"/>
  <g transform="translate(11.52 26.72) scale(.2817)">
  <path class="favicon-waratah" d="M122.291 145.572c-19.75-2.424-38.934 3.904-72.69-5.263-3.447-.937-4.718 2.694-2.854 5.736 9.07 14.803 54.881 3.203 75.635 1.065.906-.095.814-1.426-.091-1.538ZM208.735 140.309c-33.756 9.167-52.941 2.839-72.691 5.263-.905.112-1 1.447-.091 1.538 20.759 2.138 66.566 13.738 75.635-1.065 1.864-3.042.594-6.673-2.853-5.736ZM59.882 119.132c-6.864-10.058-12.474-21.31-16.818-33.69-13.101 3.826-26.51 9.346-40.16 16.57a5.388 5.388 0 0 0-2.902 4.67 5.38 5.38 0 0 0 2.653 4.812c26.431 15.802 52.273 24.841 76.93 26.933-7.34-4.475-14.072-11.044-19.703-19.295ZM23.059 85.513a201.529 201.529 0 0 1 17.976-6.233c-2.126-6.896-3.87-14.12-5.249-21.658-6.827-.85-13.89-1.4-21.199-1.641-.062 0-.128-.004-.19-.004a5.391 5.391 0 0 0-4.647 2.602 5.383 5.383 0 0 0-.12 5.483c4.243 7.659 8.724 14.808 13.429 21.45ZM88.005 135.572c4.099 1.807 8.293 2.818 12.358 3.029-9.953-7.12-17.773-19.192-22.278-34.58-5.805-19.81-7.745-41.666-5.83-65.247-7.832-4.936-16.32-9.557-25.46-13.85a5.428 5.428 0 0 0-5.402.43 5.396 5.396 0 0 0-2.388 4.841c2.126 34.215 10.95 62.915 26.223 85.298 6.404 9.391 14.281 16.332 22.777 20.079ZM107.488 23.577A253.323 253.323 0 0 0 92.235 6.735c-1.063-1.078-2.433-1.65-3.85-1.65-.506 0-1.017.075-1.523.224-1.923.568-3.314 2.106-3.733 4.115-1.072 5.164-3.11 15.69-4.012 26.101 7.014 4.613 13.492 9.49 19.426 14.621 2.3-8.757 5.29-17.63 8.945-26.569ZM255.42 102.007c-13.65-7.223-27.058-12.744-40.16-16.569-4.343 12.38-9.953 23.631-16.818 33.689-5.63 8.255-12.362 14.82-19.708 19.296 24.658-2.093 50.5-11.132 76.931-26.934 1.715-1.024 2.707-2.822 2.653-4.811-.045-1.99-1.133-3.734-2.898-4.671ZM235.273 85.513c4.705-6.643 9.186-13.796 13.43-21.455.963-1.74.922-3.788-.121-5.483a5.4 5.4 0 0 0-4.837-2.598c-7.309.24-14.377.796-21.199 1.641-1.375 7.539-3.123 14.762-5.249 21.658a203.803 203.803 0 0 1 17.976 6.237ZM180.247 104.025c-4.505 15.384-12.329 27.46-22.278 34.58 4.065-.211 8.263-1.227 12.358-3.034 8.496-3.746 16.373-10.688 22.777-20.075 15.273-22.383 24.097-51.082 26.223-85.297a5.394 5.394 0 0 0-2.388-4.84 5.428 5.428 0 0 0-5.402-.432c-9.14 4.29-17.628 8.91-25.46 13.85 1.915 23.582-.029 45.434-5.83 65.248ZM179.214 35.52c-.901-10.406-2.94-20.932-4.011-26.1-.416-2.01-1.811-3.547-3.733-4.115a5.39 5.39 0 0 0-1.524-.224c-1.416 0-2.787.572-3.85 1.65-5.485 5.549-10.568 11.164-15.252 16.842 3.654 8.939 6.644 17.812 8.949 26.565 5.934-5.127 12.407-10.005 19.421-14.617ZM129.144 87.229c6.64-13.092 17.246-24.829 25.21-32.243-4.372-17.779-11.104-34.55-20.397-52.097C132.998 1.078 131.195 0 129.148 0s-3.845 1.082-4.808 2.889c-9.389 17.604-16.237 35.122-20.377 52.093 8.313 7.688 19.28 20.224 25.181 32.247Z"/>
  <path class="favicon-waratah" d="M153.541 133.686c6.885-4.833 13.77-13.254 18.139-24.97 8.458-22.681 9.334-47.945 8.122-65.823-15.331 10.215-39.665 31.55-47.975 54.36-3.911 10.734-5.734 25.355-2.72 33.511 1.259 3.411 3.401 5.997 6.345 7.227 4.46 1.865 11.312.456 18.089-4.305ZM125.713 95.261c-2.027-4.724-4.261-9.18-7.728-14.186-9.809-14.16-23.026-26.933-39.475-38.185-.17 2.652-2.57 31.297 5.851 59.304 6.408 21.302 17.354 29.98 23.354 33.333 6.038 3.369 11.561 4.165 18.039 2.557-6.565-8.935-5.747-27.27-.041-42.823Z"/>
  </g>
</svg>
